<svg width="27" height="27" viewBox="0 0 27 27" fill="none" xmlns="http://www.w3.org/2000/svg">
<path d="M18 6.75V4.5C18 2.01487 15.9851 0 13.5 0C11.0149 0 9 2.01487 9 4.5V6.75H3.375V27H23.625V6.75H18ZM10.125 4.5C10.125 2.63925 11.6392 1.125 13.5 1.125C15.3608 1.125 16.875 2.63925 16.875 4.5V6.75H10.125V4.5ZM21.375 24.75H5.625V9H9V10.6875C9 10.998 9.252 11.25 9.5625 11.25C9.873 11.25 10.125 10.998 10.125 10.6875V9H16.875V10.6875C16.875 10.998 17.127 11.25 17.4375 11.25C17.748 11.25 18 10.998 18 10.6875V9H21.375V24.75Z" fill="#FFEB00"/>
</svg>
