<svg width="55" height="55" viewBox="0 0 55 55" fill="none" xmlns="http://www.w3.org/2000/svg">
<mask id="mask0_187_50" style="mask-type:alpha" maskUnits="userSpaceOnUse" x="0" y="0" width="55" height="55">
<rect width="55" height="55" fill="#D9D9D9"/>
</mask>
<g mask="url(#mask0_187_50)">
<path d="M11.4584 47.6755C10.8091 47.6755 10.2171 47.4985 9.68236 47.1444C9.14764 46.7903 8.78479 46.3266 8.59382 45.7533L2.17715 25.3175C1.98618 24.8454 2.07211 24.407 2.43496 24.0024C2.79781 23.5977 3.28479 23.3954 3.8959 23.3954H15.4688L25.5522 10.1424C25.7431 9.87266 26.0105 9.65346 26.3542 9.48485C26.698 9.31624 27.0608 9.23193 27.4428 9.23193C27.8247 9.23193 28.1876 9.31624 28.5313 9.48485C28.8751 9.65346 29.1424 9.87266 29.3334 10.1424L39.4167 23.3954H51.1042C51.7153 23.3954 52.2023 23.5977 52.5652 24.0024C52.928 24.407 53.014 24.8454 52.823 25.3175L46.4063 45.7533C46.2153 46.3266 45.8525 46.7903 45.3178 47.1444C44.7831 47.4985 44.191 47.6755 43.5417 47.6755H11.4584ZM12.6042 43.6288H42.3959L47.4376 27.442H7.56257L12.6042 43.6288ZM27.5001 39.5821C28.7605 39.5821 29.8395 39.1859 30.737 38.3934C31.6346 37.6009 32.0834 36.6483 32.0834 35.5354C32.0834 34.4226 31.6346 33.4699 30.737 32.6775C29.8395 31.885 28.7605 31.4887 27.5001 31.4887C26.2397 31.4887 25.1607 31.885 24.2631 32.6775C23.3655 33.4699 22.9167 34.4226 22.9167 35.5354C22.9167 36.6483 23.3655 37.6009 24.2631 38.3934C25.1607 39.1859 26.2397 39.5821 27.5001 39.5821ZM21.0261 23.3954H33.9167L27.4428 14.8973L21.0261 23.3954Z" fill="#FFEB00"/>
</g>
</svg>
