<svg width="55" height="55" viewBox="0 0 55 55" fill="none" xmlns="http://www.w3.org/2000/svg">
<mask id="mask0_187_56" style="mask-type:alpha" maskUnits="userSpaceOnUse" x="0" y="0" width="55" height="55">
<rect width="55" height="55" fill="#D9D9D9"/>
</mask>
<g mask="url(#mask0_187_56)">
<path d="M45.7188 46.0623C40.7917 46.0623 35.9887 45.0928 31.3099 43.1537C26.6311 41.2147 22.487 38.6518 18.8776 35.465C15.2682 32.2783 12.3655 28.6194 10.1693 24.4884C7.97309 20.3574 6.875 16.1168 6.875 11.7666C6.875 11.1596 7.10417 10.6538 7.5625 10.2491C8.02083 9.84442 8.59375 9.64209 9.28125 9.64209H18.5625C19.0972 9.64209 19.5747 9.79384 19.9948 10.0973C20.4149 10.4008 20.6632 10.7887 20.7396 11.2608L22.2292 18.3425C22.3056 18.8146 22.296 19.2446 22.2005 19.6324C22.105 20.0202 21.8854 20.3658 21.5417 20.6693L15.9844 25.6265C17.5885 28.0545 19.6033 30.3308 22.0286 32.4553C24.454 34.5798 27.1181 36.4177 30.0208 37.9689L35.4063 33.2141C35.75 32.9106 36.1988 32.6829 36.7526 32.5312C37.3064 32.3794 37.8507 32.3373 38.3854 32.4047L46.2917 33.8211C46.8264 33.9222 47.2656 34.1499 47.6094 34.5039C47.9531 34.858 48.125 35.2711 48.125 35.7432V43.9378C48.125 44.5448 47.8958 45.0506 47.4375 45.4553C46.9792 45.86 46.4063 46.0623 45.7188 46.0623ZM13.8073 21.7822L17.5885 18.4436L16.6146 13.6888H11.5156C11.7066 15.0714 11.974 16.4372 12.3177 17.7861C12.6615 19.135 13.158 20.467 13.8073 21.7822ZM34.3177 39.8911C35.8073 40.4644 37.3255 40.9196 38.8724 41.2569C40.4193 41.5941 41.9757 41.8133 43.5417 41.9144V37.4631L38.1563 36.502L34.3177 39.8911Z" fill="#FFEB00"/>
</g>
</svg>
