<svg width="55" height="55" viewBox="0 0 55 55" fill="none" xmlns="http://www.w3.org/2000/svg">
<mask id="mask0_187_53" style="mask-type:alpha" maskUnits="userSpaceOnUse" x="0" y="0" width="55" height="55">
<rect width="55" height="55" fill="#D9D9D9"/>
</mask>
<g mask="url(#mask0_187_53)">
<path d="M13.7498 47.9893C11.8401 47.9893 10.2169 47.3991 8.88005 46.2188C7.54324 45.0385 6.87484 43.6053 6.87484 41.9192H2.2915V19.6624C2.2915 18.5496 2.74029 17.5969 3.63786 16.8044C4.53543 16.012 5.61442 15.6157 6.87484 15.6157H38.9582V23.7091H45.8332L52.7082 31.8025V41.9192H48.1248C48.1248 43.6053 47.4564 45.0385 46.1196 46.2188C44.7828 47.3991 43.1596 47.9893 41.2498 47.9893C39.3401 47.9893 37.7169 47.3991 36.38 46.2188C35.0432 45.0385 34.3748 43.6053 34.3748 41.9192H20.6248C20.6248 43.6053 19.9564 45.0385 18.6196 46.2188C17.2828 47.3991 15.6596 47.9893 13.7498 47.9893ZM13.7498 43.9426C14.3991 43.9426 14.9434 43.7487 15.3827 43.3608C15.8219 42.973 16.0415 42.4925 16.0415 41.9192C16.0415 41.3459 15.8219 40.8654 15.3827 40.4776C14.9434 40.0898 14.3991 39.8959 13.7498 39.8959C13.1005 39.8959 12.5563 40.0898 12.117 40.4776C11.6778 40.8654 11.4582 41.3459 11.4582 41.9192C11.4582 42.4925 11.6778 42.973 12.117 43.3608C12.5563 43.7487 13.1005 43.9426 13.7498 43.9426ZM6.87484 37.8725H8.70817C9.35748 37.2655 10.1023 36.7765 10.9425 36.4056C11.7828 36.0347 12.7186 35.8492 13.7498 35.8492C14.7811 35.8492 15.7169 36.0347 16.5571 36.4056C17.3974 36.7765 18.1422 37.2655 18.7915 37.8725H34.3748V19.6624H6.87484V37.8725ZM41.2498 43.9426C41.8991 43.9426 42.4434 43.7487 42.8827 43.3608C43.3219 42.973 43.5415 42.4925 43.5415 41.9192C43.5415 41.3459 43.3219 40.8654 42.8827 40.4776C42.4434 40.0898 41.8991 39.8959 41.2498 39.8959C40.6005 39.8959 40.0563 40.0898 39.617 40.4776C39.1778 40.8654 38.9582 41.3459 38.9582 41.9192C38.9582 42.4925 39.1778 42.973 39.617 43.3608C40.0563 43.7487 40.6005 43.9426 41.2498 43.9426ZM38.9582 33.8258H48.6978L43.5415 27.7558H38.9582V33.8258Z" fill="#FFEB00"/>
</g>
</svg>
