<svg width="65" height="65" viewBox="0 0 65 65" fill="none" xmlns="http://www.w3.org/2000/svg">
<mask id="mask0_464_13" style="mask-type:alpha" maskUnits="userSpaceOnUse" x="0" y="0" width="65" height="65">
<rect width="65" height="65" fill="#D9D9D9"/>
</mask>
<g mask="url(#mask0_464_13)">
<path d="M29.7918 59.5833C28.3022 59.5833 27.0271 59.053 25.9663 57.9922C24.9055 56.9314 24.3752 55.6562 24.3752 54.1667V43.3333H16.2502C14.7606 43.3333 13.4854 42.803 12.4246 41.7422C11.3639 40.6814 10.8335 39.4062 10.8335 37.9167V18.9583C10.8335 15.9792 11.8943 13.4288 14.0158 11.3073C16.1373 9.18576 18.6877 8.125 21.6668 8.125H54.1668V37.9167C54.1668 39.4062 53.6364 40.6814 52.5757 41.7422C51.5149 42.803 50.2397 43.3333 48.7502 43.3333H40.6252V54.1667C40.6252 55.6562 40.0948 56.9314 39.034 57.9922C37.9733 59.053 36.6981 59.5833 35.2085 59.5833H29.7918ZM16.2502 27.0833H48.7502V13.5417H46.0418V24.375H40.6252V13.5417H37.9168V18.9583H32.5002V13.5417H21.6668C20.1772 13.5417 18.9021 14.072 17.8413 15.1328C16.7805 16.1936 16.2502 17.4687 16.2502 18.9583V27.0833ZM16.2502 37.9167H48.7502V32.5H16.2502V37.9167Z" fill="#FFEB00"/>
</g>
</svg>
